<svg xmlns="http://www.w3.org/2000/svg" xmlns:xlink="http://www.w3.org/1999/xlink" viewBox="0,0,256,256" width="40px" height="40px" fill-rule="nonzero"><g fill="none" fill-rule="nonzero" stroke="none" stroke-width="1" stroke-linecap="butt" stroke-linejoin="miter" stroke-miterlimit="10" stroke-dasharray="" stroke-dashoffset="0" font-family="none" font-weight="none" font-size="none" text-anchor="none" style="mix-blend-mode: normal"><g transform="scale(6.4,6.4)"><path d="M8.53,38.5c0.451,-7.626 1.361,-14.14 2.707,-19.371c1.747,-6.379 4.69,-12.204 8.75,-17.316c3.403,4.581 6.224,10.095 8.176,15.991c2.009,5.888 2.741,11.957 3.288,17.695h-0.155l-0.006,-0.01c-2.391,-4.34 -4.28,-7.768 -6.517,-10.98c-0.541,-0.675 -0.906,-0.938 -1.283,-0.938c-0.494,0 -0.914,0.222 -1.609,0.588l-0.366,0.192c-5.536,3.608 -9.95,8.488 -12.823,14.148h-0.162z" fill="#ffffff"></path><path d="M19.974,2.642c3.198,4.431 5.854,9.701 7.717,15.329c1.751,5.131 2.524,10.416 3.055,15.499c-1.955,-3.534 -3.627,-6.465 -5.563,-9.246l-0.02,-0.028l-0.021,-0.027c-0.458,-0.57 -0.975,-1.097 -1.652,-1.097c-0.617,0 -1.13,0.27 -1.84,0.645l-0.365,0.191l-0.045,0.022l-0.042,0.027c-5.017,3.273 -9.145,7.612 -12.044,12.638c0.482,-6.765 1.343,-12.587 2.562,-17.326c1.672,-6.106 4.448,-11.694 8.258,-16.627M20,1c-3.839,4.705 -7.241,10.676 -9.248,18.005c-1.396,5.428 -2.316,12.214 -2.752,19.995h1c2.884,-5.81 7.336,-10.676 12.745,-14.205c0.872,-0.452 1.309,-0.724 1.745,-0.724c0.174,0 0.436,0.181 0.872,0.724c2.269,3.257 4.195,6.772 6.638,11.205h1c-0.611,-6.514 -1.356,-12.471 -3.363,-18.352c-2.006,-6.062 -4.973,-11.853 -8.637,-16.648z" fill="#ffffff"></path><g fill="#4b6477"><path d="M21.745,18l0.255,3l-2,-2l-2,2l0.43,-3l-3.228,-1.548l3.798,-0.452l1,-10l1,10l3.798,0.452z"></path></g></g></g></svg>