<svg xmlns="http://www.w3.org/2000/svg" xmlns:xlink="http://www.w3.org/1999/xlink" viewBox="0,0,256,256" width="40px" height="40px" fill-rule="nonzero"><g fill="none" fill-rule="nonzero" stroke="none" stroke-width="1" stroke-linecap="butt" stroke-linejoin="miter" stroke-miterlimit="10" stroke-dasharray="" stroke-dashoffset="0" font-family="none" font-weight="none" font-size="none" text-anchor="none" style="mix-blend-mode: normal"><g transform="scale(16,16)"><path d="M3.53,15.5c0.202,-3.255 0.55,-5.809 1.06,-7.794c0.69,-2.52 1.832,-4.833 3.396,-6.882c1.314,1.841 2.407,4.021 3.175,6.343c0.772,2.264 1.051,4.826 1.289,7.333h-0.064c-0.441,-1.609 -1.109,-3.007 -2.139,-4.485c-0.226,-0.283 -0.46,-0.52 -0.778,-0.52c-0.28,0 -0.504,0.118 -0.813,0.282l-0.151,0.08c-2.379,1.549 -3.663,3.38 -4.813,5.643z" fill="#ffffff"></path><path d="M7.973,1.686c1.111,1.674 2.04,3.601 2.717,5.647c0.412,1.206 0.68,2.509 0.878,3.847c-0.268,-0.482 -0.57,-0.962 -0.911,-1.45l-0.02,-0.028l-0.021,-0.027c-0.163,-0.203 -0.545,-0.678 -1.147,-0.678c-0.403,0 -0.7,0.157 -1.045,0.338l-0.15,0.079l-0.044,0.022l-0.042,0.027c-1.826,1.191 -3.028,2.554 -4.015,4.147c0.206,-2.327 0.503,-4.229 0.898,-5.765c0.612,-2.237 1.586,-4.303 2.902,-6.159M8,0c-1.616,1.981 -3.049,4.495 -3.894,7.581c-0.588,2.286 -0.922,5.143 -1.106,8.419h1c1.214,-2.446 2.457,-4.214 4.735,-5.699c0.367,-0.19 0.551,-0.305 0.735,-0.305c0.073,0 0.184,0.076 0.367,0.305c0.955,1.371 1.69,2.784 2.163,4.699h1c-0.257,-2.743 -0.518,-5.514 -1.363,-7.99c-0.845,-2.553 -2.094,-4.991 -3.637,-7.01z" fill="#000000"></path><g fill="#000000"><path d="M8.735,6.886l0.265,1.098l-1,-0.984l-1,1l0.339,-1.114l-1.339,-0.402l1.486,-0.474l0.514,-3.724l0.624,3.724l1.396,0.459z"></path></g></g></g></svg>